<svg id="svg" version="1.1" xmlns="http://www.w3.org/2000/svg" xmlns:xlink="http://www.w3.org/1999/xlink" width="400" height="329.4117647058824" viewBox="0, 0, 400,329.4117647058824"><g id="svgg"><path id="path0" d="M156.837 59.308 C 156.837 60.848,156.891 60.956,157.665 60.956 C 159.001 60.956,164.415 65.460,164.415 66.572 C 164.415 66.813,164.707 66.884,165.193 66.763 C 166.201 66.509,167.202 67.538,166.894 68.510 C 166.738 69.002,166.821 69.193,167.194 69.193 C 167.478 69.193,167.710 69.415,167.710 69.687 C 167.710 69.995,168.021 70.181,168.534 70.181 C 169.392 70.181,169.660 70.674,168.946 70.937 C 168.719 71.020,168.955 71.200,169.470 71.337 C 170.232 71.539,170.378 71.731,170.257 72.366 C 170.159 72.878,170.262 73.147,170.556 73.147 C 170.835 73.147,171.005 73.521,171.005 74.135 C 171.005 74.794,171.170 75.124,171.499 75.124 C 171.873 75.124,171.993 75.526,171.993 76.771 C 171.993 77.677,172.142 78.418,172.323 78.418 C 172.509 78.418,172.652 79.352,172.652 80.560 C 172.652 82.244,172.758 82.702,173.147 82.702 C 173.548 82.702,173.641 83.237,173.641 85.538 C 173.641 87.923,173.562 88.344,173.147 88.184 C 172.739 88.027,172.652 88.367,172.652 90.126 C 172.652 91.298,172.521 92.257,172.361 92.257 C 172.201 92.257,171.993 92.552,171.899 92.912 C 171.688 93.717,170.067 94.416,169.567 93.917 C 169.079 93.428,168.699 93.495,168.699 94.069 C 168.699 94.426,168.332 94.563,167.381 94.563 C 166.429 94.563,166.063 94.701,166.063 95.058 C 166.063 95.400,165.719 95.552,164.945 95.552 C 164.233 95.552,163.755 95.740,163.628 96.069 C 163.496 96.413,163.209 96.516,162.768 96.376 C 162.327 96.236,162.039 96.338,161.907 96.682 C 161.798 96.967,161.354 97.199,160.920 97.199 C 160.487 97.199,160.132 97.345,160.132 97.523 C 160.132 97.700,159.761 97.939,159.308 98.053 C 158.855 98.166,158.484 98.391,158.484 98.553 C 158.484 98.715,157.981 98.847,157.366 98.847 C 156.721 98.847,156.175 99.039,156.074 99.300 C 155.964 99.588,155.590 99.695,155.051 99.591 C 154.421 99.471,154.201 99.567,154.201 99.962 C 154.201 100.275,153.929 100.494,153.542 100.494 C 153.161 100.494,152.883 100.714,152.883 101.015 C 152.883 101.421,152.667 101.488,151.895 101.318 C 151.122 101.148,150.906 101.214,150.906 101.621 C 150.906 101.907,150.684 102.142,150.412 102.142 C 150.140 102.142,149.918 102.340,149.918 102.583 C 149.918 103.064,148.574 103.789,147.678 103.790 C 147.369 103.791,146.823 104.230,146.464 104.766 C 145.962 105.515,145.638 105.697,145.064 105.553 C 144.624 105.442,144.316 105.515,144.316 105.730 C 144.316 106.185,143.114 107.414,142.669 107.414 C 142.488 107.414,142.339 107.562,142.339 107.743 C 142.339 107.924,142.043 108.072,141.680 108.072 C 141.295 108.072,141.021 108.292,141.021 108.602 C 141.021 108.991,140.819 109.082,140.262 108.942 C 139.496 108.749,138.386 109.627,138.386 110.426 C 138.386 110.664,137.948 110.732,137.150 110.617 C 136.470 110.519,136.100 110.512,136.326 110.601 C 137.037 110.881,136.775 111.367,135.914 111.367 C 135.402 111.367,135.091 111.554,135.091 111.862 C 135.091 112.219,134.725 112.356,133.773 112.356 C 133.048 112.356,132.455 112.504,132.455 112.685 C 132.455 112.867,132.158 113.015,131.796 113.015 C 131.430 113.015,131.137 113.234,131.137 113.509 C 131.137 113.922,130.459 114.003,127.018 114.003 C 123.577 114.003,122.900 113.922,122.900 113.509 C 122.900 113.078,121.243 113.015,109.967 113.015 L 97.035 113.015 97.133 104.448 C 97.222 96.653,97.181 95.881,96.685 95.881 C 96.259 95.881,96.167 95.637,96.268 94.778 C 96.376 93.850,96.303 93.699,95.809 93.828 C 95.425 93.928,95.222 93.797,95.222 93.449 C 95.222 93.156,95.056 92.916,94.853 92.916 C 94.591 92.916,94.599 92.776,94.879 92.439 C 95.211 92.039,95.137 91.987,94.425 92.116 C 93.817 92.226,93.575 92.128,93.575 91.769 C 93.575 91.455,93.268 91.269,92.751 91.269 C 92.298 91.269,91.928 91.136,91.928 90.975 C 91.928 90.813,91.557 90.588,91.104 90.474 C 90.651 90.361,90.280 90.122,90.280 89.944 C 90.280 89.319,76.218 89.529,75.977 90.158 C 75.815 90.580,75.457 90.659,74.294 90.527 C 73.179 90.402,72.817 90.472,72.817 90.815 C 72.817 91.079,72.473 91.269,71.993 91.269 C 71.481 91.269,71.170 91.455,71.170 91.763 C 71.170 92.035,71.011 92.257,70.817 92.257 C 70.343 92.257,69.522 93.102,69.522 93.590 C 69.522 93.805,69.258 93.912,68.935 93.828 C 68.442 93.699,68.369 93.850,68.477 94.778 C 68.578 95.642,68.486 95.881,68.053 95.881 C 67.642 95.881,67.557 96.058,67.721 96.573 C 67.841 96.954,67.832 101.031,67.700 105.634 L 67.459 114.003 65.337 114.003 C 63.890 114.003,63.058 114.161,62.721 114.498 C 62.449 114.769,61.940 114.992,61.591 114.992 C 61.241 114.992,60.956 115.140,60.956 115.321 C 60.956 115.502,60.437 115.651,59.802 115.651 C 58.997 115.651,58.649 115.800,58.649 116.145 C 58.649 116.417,58.490 116.639,58.296 116.639 C 57.828 116.639,57.002 117.482,57.002 117.960 C 57.002 118.210,56.665 118.265,56.013 118.122 C 55.240 117.952,55.025 118.018,55.025 118.425 C 55.025 118.711,54.876 118.946,54.695 118.946 C 54.514 118.946,54.366 119.168,54.366 119.440 C 54.366 119.712,54.143 119.934,53.871 119.934 C 53.564 119.934,53.377 120.245,53.377 120.758 C 53.377 121.211,53.229 121.582,53.048 121.582 C 52.867 121.582,52.718 121.952,52.718 122.405 C 52.718 122.918,52.532 123.229,52.224 123.229 C 51.865 123.229,51.730 123.599,51.730 124.582 C 51.730 125.650,51.625 125.895,51.236 125.746 C 50.797 125.577,50.741 136.252,50.741 220.603 L 50.741 315.651 200.824 315.651 L 350.906 315.651 350.906 309.885 C 350.906 305.163,350.823 304.119,350.445 304.119 C 350.140 304.119,349.945 303.644,349.868 302.718 C 349.705 300.743,349.887 299.835,350.444 299.835 C 350.863 299.835,350.921 288.906,350.896 213.344 C 350.872 138.224,350.806 126.853,350.393 126.853 C 350.068 126.853,349.918 126.482,349.918 125.677 C 349.918 125.029,349.695 124.277,349.423 124.006 C 349.152 123.734,348.929 123.225,348.929 122.876 C 348.929 122.526,348.781 122.241,348.600 122.241 C 348.418 122.241,348.270 121.960,348.270 121.617 C 348.270 121.274,348.032 120.902,347.742 120.790 C 347.450 120.678,347.295 120.375,347.395 120.113 C 347.517 119.797,347.418 119.699,347.100 119.821 C 346.758 119.953,346.623 119.760,346.623 119.146 C 346.623 118.602,346.441 118.287,346.129 118.287 C 345.857 118.287,345.634 118.064,345.634 117.792 C 345.634 117.521,345.486 117.298,345.305 117.298 C 345.124 117.298,344.975 117.080,344.975 116.814 C 344.975 116.520,344.782 116.405,344.481 116.520 C 344.168 116.640,343.987 116.516,343.987 116.180 C 343.987 115.889,343.764 115.651,343.493 115.651 C 343.221 115.651,342.998 115.433,342.998 115.167 C 342.998 114.820,342.653 114.695,341.781 114.728 C 341.107 114.753,340.507 114.602,340.436 114.389 C 340.339 114.098,331.630 114.003,304.899 114.003 L 269.491 114.003 268.727 113.180 C 268.308 112.727,267.647 112.356,267.260 112.356 C 266.855 112.356,266.557 112.147,266.557 111.862 C 266.557 111.582,266.261 111.367,265.876 111.367 C 265.501 111.367,264.670 110.811,264.029 110.132 C 263.314 109.374,262.621 108.936,262.238 108.999 C 261.848 109.064,261.614 108.909,261.614 108.587 C 261.614 108.258,261.318 108.072,260.791 108.072 C 260.338 108.072,259.967 107.940,259.967 107.779 C 259.967 107.617,259.596 107.392,259.143 107.278 C 258.690 107.164,258.320 106.926,258.320 106.748 C 258.320 106.570,258.151 106.425,257.946 106.425 C 257.740 106.425,257.228 106.054,256.808 105.601 C 256.388 105.148,255.741 104.778,255.370 104.778 C 254.990 104.778,254.695 104.562,254.695 104.283 C 254.695 104.009,254.402 103.789,254.036 103.789 C 253.674 103.789,253.377 103.658,253.377 103.498 C 253.377 103.338,253.066 103.126,252.685 103.026 C 252.304 102.926,252.091 102.687,252.210 102.493 C 252.349 102.269,252.002 102.142,251.255 102.142 C 250.610 102.142,250.082 101.993,250.082 101.812 C 250.082 101.631,249.707 101.483,249.248 101.483 C 248.790 101.483,248.329 101.260,248.225 100.988 C 248.120 100.717,247.734 100.494,247.367 100.494 C 246.999 100.494,246.355 100.124,245.935 99.671 C 245.515 99.217,244.868 98.847,244.497 98.847 C 244.126 98.847,243.822 98.701,243.822 98.524 C 243.822 98.346,243.451 98.107,242.998 97.994 C 242.545 97.880,242.175 97.655,242.175 97.493 C 242.175 97.332,241.804 97.199,241.351 97.199 C 240.838 97.199,240.527 97.013,240.527 96.705 C 240.527 96.360,240.179 96.211,239.374 96.211 C 238.740 96.211,238.221 96.063,238.221 95.881 C 238.221 95.700,237.628 95.552,236.903 95.552 C 235.951 95.552,235.585 95.415,235.585 95.058 C 235.585 94.692,235.200 94.563,234.102 94.563 C 232.693 94.563,232.142 94.162,233.031 93.785 C 233.258 93.689,232.825 93.693,232.069 93.795 C 229.408 94.154,229.102 93.463,228.912 86.656 C 228.742 80.598,228.788 80.066,229.476 80.066 C 229.787 80.066,229.857 79.663,229.735 78.583 C 229.598 77.364,229.664 77.100,230.105 77.100 C 230.522 77.100,230.643 76.769,230.643 75.618 C 230.643 74.802,230.791 74.135,230.972 74.135 C 231.153 74.135,231.301 73.913,231.301 73.641 C 231.301 73.369,231.540 73.147,231.831 73.147 C 232.166 73.147,232.291 72.965,232.171 72.652 C 231.911 71.975,232.263 71.170,232.819 71.170 C 233.072 71.170,233.278 70.947,233.278 70.675 C 233.278 70.404,233.427 70.181,233.608 70.181 C 233.789 70.181,233.937 69.800,233.937 69.334 C 233.937 68.465,234.603 67.545,235.232 67.545 C 235.426 67.545,235.585 67.323,235.585 67.051 C 235.585 66.779,235.733 66.557,235.914 66.557 C 236.096 66.557,236.244 66.334,236.244 66.063 C 236.244 65.791,236.466 65.568,236.738 65.568 C 237.010 65.568,237.232 65.403,237.232 65.200 C 237.232 64.989,237.571 64.897,238.026 64.984 C 238.594 65.093,238.771 65.010,238.650 64.693 C 238.541 64.409,238.728 64.250,239.174 64.250 C 239.556 64.250,239.868 64.102,239.868 63.921 C 239.868 63.740,240.086 63.591,240.352 63.591 C 240.647 63.591,240.762 63.398,240.646 63.097 C 240.515 62.754,240.669 62.603,241.151 62.603 C 241.548 62.603,241.845 62.392,241.845 62.109 C 241.845 61.779,242.175 61.614,242.834 61.614 C 243.515 61.614,243.822 61.453,243.822 61.094 C 243.822 60.687,244.038 60.621,244.811 60.791 C 245.583 60.960,245.799 60.894,245.799 60.487 C 245.799 60.152,246.092 59.967,246.623 59.967 C 247.076 59.967,247.446 59.819,247.446 59.638 C 247.446 59.456,247.669 59.308,247.941 59.308 C 248.248 59.308,248.435 58.997,248.435 58.484 L 248.435 57.661 202.636 57.661 L 156.837 57.661 156.837 59.308 M177.924 128.599 C 177.924 128.835,177.396 129.219,176.749 129.452 C 176.103 129.686,175.494 130.086,175.396 130.342 C 175.298 130.598,174.863 130.807,174.429 130.807 C 173.996 130.807,173.641 130.953,173.641 131.130 C 173.641 131.308,173.270 131.547,172.817 131.660 C 172.364 131.774,171.993 131.999,171.993 132.161 C 171.993 132.322,171.692 132.455,171.324 132.455 C 170.956 132.455,170.569 132.677,170.465 132.949 C 170.361 133.221,170.069 133.443,169.816 133.443 C 169.564 133.443,169.357 133.591,169.357 133.773 C 169.357 133.954,169.056 134.102,168.688 134.102 C 168.320 134.102,167.929 134.336,167.820 134.621 C 167.683 134.978,167.378 135.079,166.842 134.944 C 166.404 134.834,166.063 134.896,166.063 135.084 C 166.063 135.605,164.805 136.738,164.227 136.738 C 163.699 136.738,162.768 137.489,162.768 137.914 C 162.768 138.302,161.654 139.023,161.038 139.034 C 160.721 139.040,160.461 139.267,160.461 139.539 C 160.461 139.811,160.239 140.033,159.967 140.033 C 159.695 140.033,159.473 140.255,159.473 140.527 C 159.473 140.799,159.250 141.021,158.979 141.021 C 158.707 141.021,158.484 141.170,158.484 141.351 C 158.484 141.532,158.114 141.680,157.661 141.680 C 157.208 141.680,156.837 141.829,156.837 142.010 C 156.837 142.592,153.147 145.964,152.510 145.964 C 152.171 145.964,151.895 146.191,151.895 146.468 C 151.895 146.746,151.672 147.058,151.400 147.163 C 151.129 147.267,150.906 147.559,150.906 147.811 C 150.906 148.064,150.647 148.272,150.329 148.273 C 150.012 148.275,149.234 148.867,148.600 149.588 C 147.965 150.309,147.261 150.901,147.035 150.903 C 146.808 150.905,146.623 151.129,146.623 151.400 C 146.623 151.672,146.393 151.895,146.113 151.895 C 145.832 151.895,145.259 152.265,144.839 152.718 C 144.420 153.171,143.908 153.542,143.702 153.542 C 143.496 153.542,143.328 153.675,143.328 153.837 C 143.328 153.999,142.960 154.481,142.510 154.908 C 142.060 155.335,141.689 155.889,141.686 156.140 C 141.683 156.391,141.310 156.940,140.857 157.360 C 140.404 157.780,140.033 158.215,140.033 158.327 C 140.033 158.582,139.157 159.473,138.907 159.473 C 138.383 159.473,137.397 160.704,137.397 161.358 C 137.397 161.771,137.249 162.109,137.068 162.109 C 136.886 162.109,136.738 162.389,136.738 162.732 C 136.738 163.076,136.516 163.442,136.244 163.546 C 135.972 163.650,135.750 164.037,135.750 164.405 C 135.750 164.773,135.601 165.074,135.420 165.074 C 135.239 165.074,135.091 165.297,135.091 165.568 C 135.091 165.840,134.868 166.063,134.596 166.063 C 134.325 166.063,134.102 166.269,134.102 166.522 C 134.102 166.774,133.880 167.066,133.608 167.170 C 133.336 167.275,133.114 167.626,133.114 167.951 C 133.114 168.276,132.743 168.820,132.290 169.161 C 131.697 169.606,131.466 170.090,131.466 170.886 C 131.466 171.495,131.318 171.993,131.137 171.993 C 130.956 171.993,130.807 172.364,130.807 172.817 C 130.807 173.330,130.621 173.641,130.313 173.641 C 130.000 173.641,129.819 173.956,129.819 174.500 C 129.819 175.128,129.686 175.308,129.325 175.169 C 128.954 175.027,128.830 175.224,128.830 175.958 C 128.830 176.496,128.682 176.936,128.501 176.936 C 128.320 176.936,128.171 177.306,128.171 177.759 C 128.171 178.283,127.986 178.583,127.662 178.583 C 127.259 178.583,127.198 178.823,127.369 179.736 C 127.544 180.667,127.483 180.890,127.055 180.890 C 126.669 180.890,126.524 181.201,126.524 182.032 C 126.524 182.812,126.393 183.125,126.112 183.017 C 125.808 182.900,125.730 183.289,125.814 184.508 C 125.903 185.787,125.810 186.203,125.402 186.360 C 125.049 186.495,124.876 186.971,124.876 187.809 C 124.876 188.563,124.697 189.125,124.423 189.230 C 124.174 189.326,123.970 189.817,123.970 190.323 C 123.970 190.828,123.804 191.297,123.600 191.365 C 123.396 191.433,123.229 192.143,123.229 192.943 C 123.229 194.017,123.099 194.399,122.735 194.399 C 122.334 194.399,122.241 194.930,122.241 197.199 C 122.241 198.847,122.105 200.000,121.911 200.000 C 121.703 200.000,121.582 202.361,121.582 206.425 C 121.582 209.959,121.711 212.850,121.869 212.850 C 122.027 212.850,122.251 213.443,122.367 214.168 C 122.483 214.893,122.724 215.486,122.903 215.486 C 123.082 215.486,123.229 216.376,123.229 217.463 C 123.229 218.550,123.360 219.440,123.520 219.440 C 124.055 219.440,124.165 220.763,123.670 221.258 C 123.402 221.526,122.822 221.746,122.382 221.746 C 121.942 221.746,121.582 221.895,121.582 222.076 C 121.582 222.257,121.375 222.405,121.123 222.405 C 120.870 222.405,120.571 222.647,120.457 222.943 C 120.291 223.376,119.960 223.442,118.774 223.279 C 117.575 223.115,117.298 223.172,117.298 223.587 C 117.298 223.946,117.037 224.066,116.412 223.992 C 115.537 223.889,115.526 223.858,115.517 221.334 C 115.510 219.482,115.391 218.781,115.085 218.781 C 114.767 218.781,114.662 217.885,114.662 215.157 C 114.662 212.154,114.577 211.532,114.168 211.532 C 113.802 211.532,113.674 211.148,113.674 210.049 C 113.674 208.905,113.795 208.567,114.205 208.567 C 114.677 208.567,114.728 207.941,114.654 203.048 C 114.554 196.447,114.532 196.705,115.185 196.705 C 115.609 196.705,115.668 196.466,115.496 195.444 C 115.337 194.507,115.415 194.072,115.796 193.756 C 116.079 193.521,116.310 192.829,116.310 192.217 C 116.310 191.409,116.457 191.104,116.845 191.104 C 117.268 191.104,117.338 190.889,117.176 190.083 C 116.938 188.891,117.237 187.403,117.663 187.666 C 117.825 187.766,117.957 187.246,117.957 186.510 C 117.957 185.775,118.099 185.173,118.272 185.173 C 118.445 185.173,118.684 184.654,118.803 184.020 C 118.922 183.386,119.151 182.867,119.312 182.867 C 119.473 182.867,119.605 182.422,119.605 181.878 C 119.605 181.219,119.769 180.890,120.099 180.890 C 120.472 180.890,120.593 180.487,120.593 179.242 C 120.593 178.336,120.741 177.595,120.923 177.595 C 121.104 177.595,121.252 177.002,121.252 176.277 C 121.252 175.325,121.389 174.959,121.746 174.959 C 122.054 174.959,122.241 174.648,122.241 174.135 C 122.241 173.682,122.389 173.311,122.570 173.311 C 122.751 173.311,122.900 172.941,122.900 172.488 C 122.900 171.950,123.084 171.664,123.429 171.664 C 123.835 171.664,123.909 171.464,123.746 170.813 C 123.579 170.149,123.669 169.926,124.154 169.799 C 124.599 169.683,124.734 169.419,124.629 168.870 C 124.520 168.302,124.831 167.755,125.833 166.754 C 126.575 166.011,127.183 165.248,127.183 165.058 C 127.183 164.869,127.554 164.370,128.007 163.950 C 128.460 163.530,128.830 163.018,128.830 162.812 C 128.830 162.607,128.989 162.438,129.183 162.438 C 129.640 162.438,130.478 161.600,130.478 161.144 C 130.478 160.950,130.700 160.791,130.972 160.791 C 131.280 160.791,131.466 160.480,131.466 159.967 C 131.466 159.514,131.598 159.143,131.760 159.143 C 131.922 159.143,132.147 158.773,132.261 158.320 C 132.374 157.867,132.613 157.496,132.790 157.496 C 132.968 157.496,133.114 157.273,133.114 157.002 C 133.114 156.730,133.252 156.507,133.421 156.507 C 133.590 156.507,133.832 156.179,133.960 155.778 C 134.087 155.376,134.690 154.563,135.300 153.971 C 135.910 153.379,136.409 152.744,136.409 152.559 C 136.409 152.375,136.567 152.224,136.760 152.224 C 136.954 152.224,137.601 151.705,138.199 151.071 C 138.798 150.437,139.603 149.918,139.989 149.918 C 140.398 149.918,140.692 149.708,140.692 149.417 C 140.692 149.047,140.908 148.971,141.519 149.124 C 142.189 149.292,142.308 149.231,142.143 148.801 C 142.028 148.502,142.105 148.270,142.320 148.270 C 142.529 148.270,143.044 147.900,143.464 147.446 C 143.884 146.993,144.395 146.623,144.601 146.623 C 144.807 146.623,144.975 146.433,144.975 146.201 C 144.975 145.969,145.272 145.566,145.634 145.305 C 145.997 145.044,146.293 144.676,146.293 144.489 C 146.293 144.301,146.738 143.951,147.282 143.710 C 147.825 143.470,148.270 143.063,148.270 142.806 C 148.270 142.528,148.603 142.339,149.094 142.339 C 149.606 142.339,149.918 142.153,149.918 141.845 C 149.918 141.573,150.140 141.351,150.412 141.351 C 150.684 141.351,150.906 141.203,150.906 141.021 C 150.906 140.840,151.207 140.692,151.575 140.692 C 151.944 140.692,152.332 140.465,152.438 140.188 C 152.560 139.870,152.860 139.756,153.252 139.881 C 153.691 140.020,153.871 139.916,153.871 139.522 C 153.871 139.142,154.066 139.018,154.489 139.129 C 154.968 139.254,155.069 139.149,154.940 138.656 C 154.798 138.114,154.900 138.053,155.641 138.239 C 156.308 138.407,156.507 138.335,156.507 137.927 C 156.507 137.581,156.794 137.397,157.331 137.397 C 157.844 137.397,158.155 137.210,158.155 136.903 C 158.155 136.631,158.377 136.409,158.649 136.409 C 158.921 136.409,159.143 136.260,159.143 136.079 C 159.143 135.898,159.662 135.750,160.297 135.750 C 161.102 135.750,161.450 135.601,161.450 135.255 C 161.450 134.948,161.761 134.761,162.273 134.761 C 162.727 134.761,163.097 134.613,163.097 134.432 C 163.097 134.250,163.468 134.102,163.921 134.102 C 164.433 134.102,164.745 133.915,164.745 133.608 C 164.745 133.303,165.054 133.114,165.552 133.114 C 165.996 133.114,166.496 132.870,166.662 132.573 C 166.864 132.212,167.244 132.085,167.802 132.192 C 168.409 132.308,168.592 132.230,168.468 131.909 C 168.344 131.584,168.648 131.466,169.616 131.466 C 170.484 131.466,170.999 131.297,171.124 130.972 C 171.228 130.700,171.615 130.478,171.983 130.478 C 172.351 130.478,172.652 130.329,172.652 130.148 C 172.652 129.967,173.171 129.819,173.806 129.819 C 174.611 129.819,174.959 129.670,174.959 129.325 C 174.959 128.981,175.304 128.830,176.093 128.830 C 176.716 128.830,177.318 128.682,177.430 128.501 C 177.711 128.046,177.924 128.089,177.924 128.599 M317.628 133.644 C 317.628 134.040,317.829 134.123,318.428 133.973 C 318.930 133.847,319.411 133.956,319.722 134.267 C 319.994 134.539,320.598 134.761,321.064 134.761 C 321.597 134.761,321.911 134.944,321.911 135.255 C 321.911 135.585,322.241 135.750,322.900 135.750 C 323.443 135.750,323.888 135.898,323.888 136.079 C 323.888 136.260,324.110 136.409,324.382 136.409 C 324.654 136.409,324.876 136.631,324.876 136.903 C 324.876 137.175,325.030 137.397,325.217 137.397 C 325.719 137.397,327.512 139.321,327.512 139.860 C 327.512 140.115,327.661 140.415,327.842 140.527 C 328.023 140.639,328.171 141.241,328.171 141.865 C 328.171 142.653,328.322 142.998,328.666 142.998 C 329.101 142.998,329.160 146.074,329.160 168.699 C 329.160 182.834,329.034 194.399,328.879 194.399 C 328.148 194.399,326.524 193.632,326.524 193.287 C 326.524 193.033,326.069 192.942,325.206 193.024 C 324.164 193.124,323.888 193.039,323.888 192.621 C 323.888 192.206,323.533 192.092,322.241 192.092 C 320.690 192.092,320.408 191.910,320.559 191.007 C 320.583 190.864,320.314 190.901,319.960 191.090 C 319.065 191.569,318.616 191.518,318.616 190.939 C 318.616 190.632,318.305 190.445,317.792 190.445 C 317.275 190.445,316.969 190.259,316.969 189.944 C 316.969 189.575,316.753 189.498,316.148 189.650 C 315.564 189.796,315.269 189.703,315.124 189.327 C 315.013 189.035,314.641 188.797,314.298 188.797 C 313.954 188.797,313.674 188.572,313.674 188.297 C 313.674 187.928,313.458 187.851,312.853 188.002 C 312.269 188.149,311.974 188.056,311.829 187.679 C 311.718 187.388,311.346 187.150,311.003 187.150 C 310.507 187.150,310.379 186.908,310.379 185.973 C 310.379 185.326,310.175 184.592,309.925 184.343 C 309.606 184.024,309.518 183.346,309.626 182.060 C 309.755 180.542,309.692 180.231,309.256 180.231 C 308.839 180.231,308.731 179.854,308.731 178.395 C 308.731 177.202,308.558 176.386,308.237 176.065 C 307.965 175.793,307.743 174.988,307.743 174.276 C 307.743 173.564,307.595 172.982,307.414 172.982 C 307.232 172.982,307.084 172.405,307.084 171.699 C 307.084 170.832,306.915 170.352,306.561 170.216 C 306.148 170.057,306.085 169.737,306.260 168.698 C 306.437 167.654,306.382 167.381,305.995 167.381 C 305.287 167.381,305.124 166.687,305.341 164.592 C 305.494 163.107,305.440 162.756,305.072 162.834 C 304.764 162.900,304.577 162.559,304.504 161.793 C 304.440 161.115,304.073 160.354,303.598 159.914 C 303.160 159.507,302.801 158.871,302.801 158.500 C 302.801 158.129,302.636 157.825,302.434 157.825 C 302.218 157.825,302.124 157.439,302.205 156.884 C 302.319 156.107,302.240 155.971,301.748 156.099 C 301.287 156.220,301.153 156.062,301.153 155.393 C 301.153 154.846,300.972 154.530,300.659 154.530 C 300.351 154.530,300.165 154.219,300.165 153.707 C 300.165 153.254,300.016 152.883,299.835 152.883 C 299.654 152.883,299.506 152.579,299.506 152.208 C 299.506 151.837,299.135 151.190,298.682 150.770 C 298.229 150.350,297.858 149.690,297.858 149.303 C 297.858 148.898,297.649 148.600,297.364 148.600 C 297.057 148.600,296.870 148.288,296.870 147.776 C 296.870 147.323,296.722 146.952,296.540 146.952 C 296.359 146.952,296.211 146.582,296.211 146.129 C 296.211 145.616,296.024 145.305,295.717 145.305 C 295.432 145.305,295.222 145.007,295.222 144.601 C 295.222 144.214,294.852 143.554,294.399 143.134 C 293.946 142.714,293.575 142.134,293.575 141.845 C 293.575 141.556,293.204 140.976,292.751 140.556 C 292.298 140.136,291.928 139.476,291.928 139.089 C 291.928 138.702,291.774 138.386,291.587 138.386 C 291.002 138.386,289.238 136.363,289.417 135.897 C 289.527 135.612,289.417 135.519,289.110 135.637 C 288.801 135.756,288.633 135.609,288.633 135.219 C 288.633 134.888,288.239 134.279,287.758 133.866 L 286.883 133.114 302.255 133.114 C 316.160 133.114,317.628 133.164,317.628 133.644 M213.839 139.048 C 215.016 139.251,216.944 139.641,218.122 139.915 C 219.300 140.189,220.783 140.524,221.417 140.660 C 222.051 140.795,222.867 141.065,223.229 141.259 C 223.591 141.453,225.074 142.008,226.524 142.491 C 228.846 143.266,231.714 144.581,236.863 147.230 C 237.688 147.654,238.787 148.359,239.306 148.795 C 239.824 149.231,240.453 149.588,240.703 149.588 C 241.584 149.588,243.920 152.143,243.724 152.892 C 243.564 153.505,243.650 153.560,244.482 153.377 C 245.529 153.147,245.985 153.489,251.062 158.306 C 253.799 160.904,255.161 162.587,256.538 165.075 C 256.917 165.760,257.547 166.727,257.938 167.225 C 258.329 167.722,258.649 168.286,258.649 168.478 C 258.649 168.670,258.999 169.206,259.427 169.669 C 260.419 170.743,264.369 177.770,264.922 179.444 C 265.153 180.144,265.688 181.459,266.111 182.368 C 267.163 184.628,267.128 185.094,265.919 184.917 C 264.626 184.727,258.129 186.882,255.158 188.485 C 252.524 189.907,246.360 192.475,243.226 193.457 C 240.525 194.303,239.868 194.970,239.868 196.870 C 239.868 198.753,239.898 198.751,244.325 196.577 C 246.314 195.600,248.904 194.404,250.082 193.920 C 251.260 193.436,252.691 192.826,253.262 192.566 C 253.833 192.305,254.443 192.092,254.617 192.092 C 256.056 192.092,264.833 188.388,266.433 187.106 C 267.363 186.360,269.206 190.908,269.195 193.921 C 269.194 194.292,269.367 194.771,269.580 194.984 C 270.345 195.749,270.612 199.007,270.734 209.082 L 270.858 219.318 270.025 221.200 C 269.567 222.236,269.193 223.403,269.193 223.793 C 269.193 224.965,266.973 233.201,266.512 233.741 C 266.037 234.297,260.404 231.808,255.684 228.954 C 253.446 227.601,247.358 224.586,244.811 223.569 C 243.995 223.244,241.878 222.302,240.106 221.477 C 237.174 220.111,236.838 220.023,236.365 220.495 C 235.526 221.335,236.111 222.385,237.842 223.142 C 238.684 223.511,239.812 224.121,240.348 224.498 C 240.884 224.875,243.840 226.421,246.916 227.933 C 249.993 229.446,252.929 230.982,253.441 231.347 C 254.774 232.296,260.068 234.881,262.732 235.883 C 266.243 237.205,266.270 237.820,263.034 242.747 C 262.253 243.936,261.614 245.081,261.614 245.291 C 261.614 245.502,261.191 246.110,260.673 246.643 C 260.156 247.175,259.485 248.093,259.182 248.682 C 258.880 249.271,258.519 249.753,258.380 249.753 C 258.242 249.753,257.696 250.494,257.166 251.400 C 256.637 252.306,256.111 253.048,255.997 253.048 C 255.883 253.048,255.618 253.424,255.408 253.884 C 255.199 254.344,254.382 255.419,253.593 256.273 C 252.805 257.127,251.655 258.580,251.039 259.503 C 249.552 261.728,242.142 268.097,241.501 267.701 C 241.108 267.458,237.800 262.295,236.968 260.626 C 236.561 259.811,235.718 258.254,235.094 257.166 C 234.471 256.079,233.649 254.596,233.270 253.871 C 232.320 252.058,231.670 250.924,230.180 248.479 C 229.476 247.326,228.278 245.102,227.516 243.537 C 225.990 240.400,225.433 239.765,224.352 239.925 C 222.721 240.167,223.246 242.750,225.679 246.458 C 225.858 246.730,226.974 249.089,228.159 251.700 C 229.345 254.311,230.659 256.906,231.079 257.466 C 231.500 258.026,232.488 259.671,233.276 261.120 C 234.064 262.570,234.988 264.120,235.329 264.564 C 236.320 265.855,237.931 269.572,237.824 270.320 C 237.724 271.020,236.731 271.624,233.272 273.087 C 232.279 273.508,229.909 274.572,228.007 275.453 C 226.104 276.334,223.213 277.450,221.582 277.933 C 219.951 278.417,217.727 279.095,216.639 279.440 C 213.991 280.282,209.298 280.929,208.879 280.510 C 208.702 280.333,208.487 278.641,208.401 276.750 C 208.316 274.859,208.114 270.494,207.953 267.051 C 207.792 263.608,207.719 260.124,207.791 259.308 C 207.927 257.781,207.153 255.683,206.363 255.436 C 204.528 254.861,204.364 257.755,205.034 278.913 L 205.107 281.219 198.847 281.144 C 190.388 281.041,184.460 280.127,180.491 278.312 C 179.473 277.846,177.775 277.213,176.717 276.906 C 174.051 276.131,164.213 271.111,161.526 269.154 C 159.349 267.568,149.588 258.147,149.588 257.631 C 149.588 257.487,148.795 256.434,147.826 255.291 C 143.880 250.638,140.569 244.415,141.021 242.504 C 141.238 241.590,140.569 239.330,139.843 238.525 C 139.586 238.239,139.246 237.314,139.088 236.469 C 138.931 235.624,138.647 234.746,138.459 234.517 C 138.106 234.089,137.520 231.504,137.058 228.336 C 136.912 227.339,136.539 225.803,136.228 224.922 C 135.703 223.433,135.701 223.241,136.200 222.193 C 136.863 220.804,136.880 220.224,136.264 219.988 C 135.955 219.869,135.755 220.056,135.688 220.529 C 135.525 221.669,132.341 221.615,132.179 220.469 C 132.077 219.745,132.153 219.701,133.171 219.892 C 134.662 220.172,135.209 219.368,134.686 217.664 C 134.285 216.358,134.496 215.845,135.195 216.425 C 135.443 216.630,135.743 216.701,135.862 216.581 C 136.338 216.105,136.023 215.359,134.919 214.348 C 133.795 213.318,133.759 213.211,133.749 210.844 C 133.730 206.160,133.783 205.304,134.106 205.105 C 134.605 204.796,134.493 203.907,133.901 203.474 C 133.422 203.124,133.454 202.922,134.230 201.391 C 134.958 199.954,135.031 199.570,134.708 198.861 C 134.393 198.170,134.427 197.916,134.903 197.389 C 135.254 197.002,135.400 196.500,135.275 196.109 C 135.163 195.756,135.299 194.797,135.577 193.978 C 135.855 193.159,136.176 191.808,136.290 190.976 C 136.404 190.144,136.700 189.295,136.947 189.090 C 137.195 188.885,137.397 188.450,137.397 188.125 C 137.397 187.799,137.602 187.113,137.852 186.600 C 138.460 185.356,139.374 182.424,139.374 181.720 C 139.374 181.410,139.675 180.733,140.044 180.215 C 140.412 179.698,140.919 178.592,141.170 177.757 C 141.421 176.923,142.255 175.247,143.023 174.034 C 143.791 172.821,144.767 171.276,145.191 170.601 C 146.041 169.249,147.402 168.201,147.904 168.511 C 148.388 168.810,150.577 166.400,150.577 165.569 C 150.577 164.693,151.493 163.810,152.765 163.458 C 153.587 163.231,153.695 163.060,153.616 162.107 C 153.507 160.791,154.154 160.023,157.123 157.944 C 159.294 156.424,159.780 156.306,159.170 157.446 C 158.663 158.393,158.722 158.672,159.501 159.020 C 160.181 159.323,160.179 159.336,159.327 160.188 C 158.588 160.927,158.495 161.235,158.674 162.352 C 158.880 163.646,157.354 165.071,155.756 165.075 C 155.535 165.076,154.925 165.872,154.401 166.844 C 153.668 168.203,153.305 168.575,152.836 168.452 C 152.499 168.364,152.223 168.421,152.223 168.578 C 152.221 168.927,150.583 170.666,149.648 171.312 C 148.902 171.827,148.986 172.407,149.763 172.109 C 150.314 171.897,150.392 172.390,149.942 173.233 C 149.774 173.548,149.541 174.102,149.424 174.465 C 149.216 175.109,149.201 175.110,148.751 174.498 C 148.162 173.697,147.199 174.356,147.344 175.461 C 147.445 176.235,146.782 177.259,146.171 177.274 C 145.210 177.297,143.218 179.703,142.944 181.172 C 142.790 181.995,142.369 183.278,142.008 184.024 C 141.048 186.008,141.197 187.172,142.273 186.096 C 142.840 185.529,142.793 186.339,142.148 188.231 C 141.692 189.570,141.555 189.713,141.039 189.391 C 140.161 188.842,139.375 189.295,139.370 190.352 C 139.367 190.856,139.085 192.162,138.743 193.255 C 138.400 194.348,138.189 195.608,138.273 196.056 C 138.390 196.674,138.244 196.949,137.665 197.199 C 136.801 197.573,136.407 199.012,137.169 199.012 C 138.510 199.012,138.499 201.634,137.158 201.658 C 136.836 201.663,136.307 202.034,135.981 202.482 L 135.389 203.295 136.568 203.295 C 137.969 203.295,138.403 204.012,137.564 204.940 C 137.037 205.522,137.034 205.615,137.524 206.105 C 137.883 206.464,138.056 207.218,138.056 208.426 C 138.056 209.409,138.194 210.214,138.363 210.214 C 139.086 210.214,139.094 211.602,138.375 212.367 C 137.812 212.966,137.697 213.359,137.876 214.069 C 138.004 214.576,138.169 216.549,138.244 218.451 C 138.319 220.354,138.519 222.282,138.687 222.735 C 138.972 223.499,139.192 224.876,139.555 228.171 C 139.635 228.896,139.841 229.786,140.014 230.148 C 140.187 230.511,140.389 231.474,140.465 232.290 C 140.716 235.021,141.451 239.209,141.679 239.209 C 141.973 239.209,142.669 237.674,142.669 237.025 C 142.669 235.953,143.518 236.866,144.053 238.513 C 144.362 239.463,145.140 241.348,145.783 242.702 C 146.426 244.057,146.952 245.295,146.952 245.455 C 146.952 245.614,147.071 245.794,147.215 245.854 C 147.360 245.914,148.175 247.151,149.028 248.603 C 150.889 251.773,152.110 252.817,151.757 250.935 C 151.617 250.191,151.663 249.753,151.880 249.753 C 152.069 249.753,152.224 249.901,152.224 250.082 C 152.224 250.264,152.375 250.412,152.560 250.412 C 153.036 250.412,152.619 248.852,151.721 247.274 C 150.792 245.644,148.272 239.841,148.271 239.332 C 148.271 239.128,148.063 238.789,147.810 238.579 C 147.558 238.369,147.249 237.654,147.124 236.991 C 147.000 236.327,146.625 235.438,146.292 235.015 C 145.588 234.120,145.861 232.543,146.857 231.744 C 147.385 231.321,147.299 231.293,146.047 231.480 C 144.527 231.707,144.514 231.694,144.175 229.641 C 143.938 228.201,146.495 227.075,148.305 227.822 C 148.689 227.981,148.951 227.761,149.254 227.028 C 149.843 225.609,150.121 225.535,151.268 226.500 C 152.011 227.126,152.492 227.293,153.106 227.139 C 153.796 226.966,153.916 227.035,153.816 227.551 C 153.750 227.892,153.452 228.173,153.154 228.176 C 152.857 228.178,152.306 228.458,151.931 228.797 C 151.296 229.372,151.178 229.379,150.177 228.894 L 149.104 228.375 148.634 229.553 C 148.094 230.908,148.412 231.733,149.539 231.901 C 149.929 231.959,150.247 232.228,150.247 232.500 C 150.247 232.843,150.047 232.930,149.588 232.784 C 149.120 232.636,148.929 232.725,148.929 233.091 C 148.929 233.388,149.209 233.608,149.588 233.608 C 150.324 233.608,150.521 234.850,149.885 235.485 C 149.622 235.748,149.780 235.970,150.462 236.295 C 151.402 236.744,151.670 237.319,152.555 240.789 C 152.789 241.706,153.172 242.320,153.643 242.535 C 154.043 242.717,154.707 243.452,155.119 244.168 C 156.043 245.774,156.837 245.891,156.837 244.422 C 156.837 243.646,156.538 243.101,155.684 242.318 C 154.449 241.187,154.254 240.283,154.992 239.115 C 155.608 238.142,156.837 232.994,156.837 231.389 C 156.837 228.719,158.072 226.030,159.299 226.030 C 161.644 226.030,164.500 221.334,162.795 220.280 C 161.591 219.537,159.488 219.705,159.090 220.578 C 158.677 221.486,156.271 221.599,155.392 220.752 C 155.230 220.596,154.744 220.705,154.295 220.999 C 153.028 221.829,151.810 220.235,152.033 218.040 C 152.197 216.437,151.941 216.143,150.936 216.779 C 150.571 217.009,150.547 217.274,150.822 218.009 C 151.551 219.954,151.356 222.245,150.425 222.669 C 149.965 222.878,149.588 223.276,149.588 223.551 C 149.588 224.281,149.036 224.165,148.834 223.394 C 148.465 221.985,147.627 223.062,147.616 224.959 C 147.613 225.367,147.426 225.722,147.199 225.749 C 146.973 225.776,146.565 225.828,146.293 225.865 C 146.021 225.902,145.625 225.954,145.413 225.981 C 145.201 226.008,144.930 226.474,144.811 227.018 C 144.550 228.203,144.338 228.227,142.654 227.265 C 141.457 226.581,141.353 226.409,141.323 225.041 C 140.863 204.526,141.648 197.364,144.357 197.364 C 145.071 197.364,145.114 197.626,144.611 198.908 C 144.411 199.418,144.200 201.244,144.143 202.965 C 143.908 209.971,143.568 213.564,143.124 213.735 C 142.769 213.871,142.778 213.995,143.172 214.388 C 143.527 214.743,143.657 215.661,143.657 217.797 C 143.657 219.404,143.806 220.811,143.987 220.923 C 144.375 221.162,144.380 221.130,144.506 217.298 C 144.709 211.167,144.888 209.015,145.256 208.329 C 145.464 207.940,145.634 207.019,145.634 206.282 C 145.634 205.317,145.771 204.942,146.123 204.942 C 146.524 204.942,146.576 204.588,146.407 202.979 C 146.290 201.857,146.351 200.621,146.550 200.096 C 146.742 199.590,146.989 198.762,147.100 198.257 C 147.210 197.751,147.445 197.426,147.621 197.535 C 148.086 197.822,147.986 199.957,147.437 201.483 C 146.928 202.896,146.815 203.954,147.173 203.954 C 147.295 203.954,147.686 203.694,148.042 203.377 C 148.767 202.731,148.757 203.143,147.976 206.096 C 147.784 206.820,147.623 208.035,147.619 208.794 C 147.615 209.554,147.450 210.275,147.252 210.397 C 147.034 210.532,146.977 211.065,147.107 211.760 C 147.234 212.436,147.171 213.081,146.951 213.345 C 146.406 214.002,147.199 216.474,147.954 216.474 C 148.677 216.474,148.919 215.553,148.925 212.779 C 148.927 211.562,149.135 209.931,149.387 209.155 C 149.807 207.858,150.150 205.982,150.428 203.460 C 150.607 201.827,152.386 196.651,152.728 196.764 C 153.113 196.892,152.939 200.259,152.506 201.074 C 152.337 201.392,152.210 202.282,152.224 203.050 C 152.256 204.799,151.784 207.728,151.239 209.169 C 150.928 209.989,150.915 210.467,151.187 211.064 C 151.683 212.152,152.418 212.067,152.834 210.873 C 153.023 210.329,153.330 209.885,153.515 209.885 C 153.699 209.885,153.766 209.663,153.662 209.393 C 153.305 208.464,154.344 202.163,155.183 200.165 C 155.335 199.802,155.562 199.209,155.689 198.847 C 155.911 198.209,155.930 198.212,156.267 198.938 C 156.787 200.055,157.188 199.793,158.150 197.710 C 158.694 196.532,160.027 195.939,161.368 196.280 C 162.552 196.580,164.086 196.022,164.086 195.290 C 164.086 194.905,162.631 194.808,162.074 195.156 C 160.867 195.910,160.013 194.515,160.486 192.559 C 160.848 191.060,162.572 187.534,163.132 187.147 C 163.265 187.054,163.762 186.207,164.235 185.265 C 164.709 184.322,165.243 183.460,165.422 183.349 C 167.331 182.169,168.865 178.450,167.576 178.126 C 166.996 177.980,166.827 177.758,166.947 177.298 C 167.057 176.877,166.904 176.604,166.480 176.469 C 166.002 176.318,165.882 176.039,165.987 175.323 C 166.063 174.803,165.963 174.277,165.765 174.155 C 164.975 173.666,165.515 172.664,167.959 170.081 L 170.515 167.381 172.243 167.381 C 173.390 167.381,173.980 167.242,173.999 166.969 C 174.014 166.742,174.159 166.998,174.320 167.537 C 174.501 168.144,174.490 168.640,174.291 168.839 C 173.905 169.225,173.863 170.346,174.234 170.346 C 174.379 170.346,174.669 170.174,174.879 169.965 C 175.282 169.562,180.887 175.039,180.889 175.837 C 180.889 176.049,181.005 176.271,181.145 176.332 C 181.495 176.482,184.703 181.556,184.964 182.372 C 185.079 182.735,185.657 183.550,186.246 184.185 C 186.836 184.819,187.614 185.908,187.976 186.605 C 188.337 187.302,188.951 188.220,189.340 188.645 C 189.729 189.069,190.125 189.611,190.220 189.848 C 190.316 190.089,190.404 189.972,190.419 189.582 C 190.433 189.199,189.619 187.644,188.611 186.128 C 187.602 184.613,186.463 182.814,186.079 182.131 C 185.695 181.448,185.283 180.890,185.162 180.890 C 185.042 180.890,184.676 180.297,184.349 179.572 C 184.022 178.847,183.629 178.254,183.475 178.254 C 183.322 178.254,183.196 177.901,183.196 177.470 C 183.196 177.039,182.982 176.509,182.721 176.293 C 182.460 176.076,182.200 175.427,182.144 174.852 C 182.079 174.177,181.883 173.839,181.594 173.900 C 180.941 174.038,180.221 172.953,180.305 171.961 C 180.345 171.490,180.122 170.850,179.810 170.537 C 179.273 170.000,179.242 170.007,179.242 170.676 C 179.242 171.661,178.212 171.409,177.677 170.292 C 177.201 169.299,177.455 168.172,178.045 168.662 C 178.315 168.886,178.418 168.521,178.418 167.349 C 178.418 166.247,178.295 165.773,178.034 165.873 C 177.618 166.033,177.184 165.265,177.508 164.942 C 177.616 164.833,177.901 164.745,178.140 164.745 C 178.730 164.745,179.901 163.710,179.901 163.189 C 179.901 162.957,180.117 162.768,180.380 162.768 C 181.977 162.768,183.021 161.608,181.823 161.164 L 181.109 160.900 181.823 160.187 C 182.610 159.400,185.173 159.150,185.173 159.860 C 185.173 160.073,185.507 159.939,185.914 159.563 C 186.640 158.895,189.334 157.825,190.292 157.825 C 190.557 157.825,190.774 157.677,190.774 157.496 C 190.774 157.315,191.284 157.166,191.908 157.166 C 193.140 157.166,193.722 156.697,192.887 156.377 C 192.602 156.268,191.475 156.178,190.383 156.178 C 188.655 156.178,188.314 156.071,187.746 155.349 L 187.094 154.520 186.131 155.552 C 185.394 156.341,184.967 156.545,184.313 156.420 C 183.701 156.303,183.165 156.510,182.421 157.154 C 181.851 157.648,180.656 158.231,179.767 158.451 C 178.877 158.670,177.843 159.064,177.469 159.326 C 177.095 159.588,176.489 159.807,176.121 159.813 C 175.754 159.819,175.165 160.041,174.813 160.307 C 174.462 160.573,173.498 160.794,172.672 160.798 C 171.684 160.803,170.888 161.028,170.346 161.455 L 169.522 162.105 170.256 162.308 C 171.429 162.633,170.627 163.756,169.221 163.756 C 168.311 163.756,168.049 163.926,167.715 164.732 C 167.329 165.664,165.451 167.381,164.818 167.381 C 164.652 167.381,164.261 167.664,163.948 168.010 C 163.634 168.356,163.018 168.730,162.579 168.840 C 161.923 169.005,161.779 169.248,161.779 170.195 C 161.779 172.367,159.535 174.773,158.043 174.201 C 157.800 174.108,157.409 174.150,157.175 174.294 C 156.863 174.487,156.937 174.617,157.452 174.780 C 158.210 175.021,158.382 175.917,157.785 176.515 C 157.582 176.718,157.182 176.795,156.896 176.685 C 156.507 176.536,156.559 176.742,157.101 177.503 C 158.278 179.156,158.089 179.659,156.343 179.520 C 155.527 179.455,154.860 179.497,154.860 179.613 C 154.860 179.729,154.526 179.937,154.119 180.074 C 153.404 180.315,153.410 180.329,154.283 180.464 C 155.393 180.635,155.396 180.747,154.356 183.022 C 153.647 184.572,153.389 184.845,152.626 184.855 C 152.133 184.862,151.359 185.079,150.906 185.338 C 149.599 186.085,149.486 185.949,149.676 183.855 C 149.849 181.950,149.827 181.878,149.082 181.878 C 147.805 181.878,147.750 181.188,148.940 180.125 C 149.827 179.333,150.031 178.920,149.971 178.037 C 149.902 177.014,149.968 176.936,150.896 176.936 C 151.445 176.936,151.895 177.060,151.895 177.212 C 151.895 177.364,152.265 177.658,152.718 177.864 C 153.529 178.234,153.542 178.217,153.542 176.791 C 153.542 175.381,153.578 175.331,154.942 174.877 C 156.867 174.235,157.147 173.126,155.304 173.446 C 154.607 173.566,154.188 173.549,154.373 173.406 C 154.559 173.263,154.961 172.752,155.268 172.269 C 155.581 171.777,156.265 171.295,156.826 171.172 C 158.007 170.913,158.148 170.081,157.163 169.190 C 156.275 168.386,158.419 167.051,160.597 167.051 C 162.361 167.051,163.533 166.274,162.722 165.641 C 162.224 165.253,162.228 165.163,162.775 164.488 C 163.552 163.529,163.870 163.561,163.676 164.580 C 163.440 165.810,164.421 165.648,166.740 164.073 C 168.488 162.886,169.274 161.779,168.369 161.779 C 168.188 161.779,168.040 161.583,168.040 161.342 C 168.040 160.586,170.461 158.814,171.495 158.814 C 171.769 158.814,171.993 158.597,171.993 158.331 C 171.993 157.602,173.264 157.037,175.342 156.845 L 177.208 156.672 176.755 155.361 C 175.896 152.872,177.432 151.357,178.516 153.624 C 179.064 154.773,179.319 154.761,180.346 153.541 C 180.836 152.958,181.266 152.693,181.392 152.896 C 181.509 153.086,181.436 153.445,181.229 153.695 C 180.938 154.045,180.986 154.222,181.439 154.476 C 182.065 154.826,183.196 154.431,183.196 153.864 C 183.196 152.757,184.993 151.847,185.728 152.582 C 186.488 153.342,188.702 151.547,188.505 150.329 C 188.469 150.103,188.620 149.918,188.842 149.918 C 189.478 149.918,191.433 150.685,191.433 150.934 C 191.433 151.276,189.876 152.224,189.315 152.224 C 189.043 152.224,188.651 152.540,188.445 152.926 C 188.087 153.595,188.124 153.618,189.220 153.412 C 189.853 153.294,191.577 153.181,193.051 153.162 C 196.012 153.123,196.059 153.100,195.813 151.810 C 195.683 151.130,195.448 150.906,194.865 150.906 C 194.358 150.906,194.148 150.756,194.257 150.471 C 194.353 150.221,194.060 149.869,193.569 149.645 C 193.099 149.431,192.782 149.145,192.864 149.010 C 192.946 148.875,193.182 148.136,193.388 147.368 C 194.251 144.151,199.359 143.452,199.271 146.563 C 199.257 147.051,199.352 147.786,199.483 148.197 C 199.669 148.785,199.503 149.135,198.707 149.834 C 197.472 150.917,197.434 151.236,198.539 151.236 C 199.796 151.236,200.547 151.758,200.950 152.913 C 201.209 153.657,201.456 153.889,201.835 153.744 C 202.124 153.633,202.482 153.542,202.632 153.542 C 203.047 153.542,202.609 150.810,202.098 150.221 C 201.522 149.557,201.519 148.416,202.092 147.881 C 202.464 147.533,202.438 147.302,201.929 146.467 C 200.789 144.599,201.892 143.456,204.464 143.842 C 206.282 144.114,206.327 144.543,204.609 145.218 C 203.388 145.698,203.326 145.781,203.799 146.304 C 204.232 146.783,204.239 146.899,203.846 147.050 C 203.544 147.166,203.369 147.765,203.349 148.750 C 203.332 149.587,203.232 150.412,203.127 150.582 C 202.585 151.458,204.994 153.538,206.553 153.541 C 206.987 153.541,207.538 153.801,207.779 154.119 C 208.184 154.653,208.217 154.640,208.227 153.954 C 208.234 153.429,208.045 153.213,207.578 153.213 C 206.586 153.213,206.786 152.638,207.990 152.029 C 209.304 151.365,210.544 150.262,210.544 149.756 C 210.544 149.549,211.063 148.920,211.697 148.359 C 212.611 147.550,212.850 147.093,212.850 146.157 C 212.850 144.798,212.966 144.770,215.396 145.536 C 216.925 146.018,217.218 146.031,217.467 145.628 C 217.871 144.974,217.254 144.657,215.568 144.651 C 214.798 144.648,214.168 144.498,214.168 144.316 C 214.168 144.135,213.791 143.987,213.331 143.987 C 212.871 143.987,211.944 143.713,211.272 143.379 C 209.160 142.329,203.676 141.796,202.301 142.507 C 201.238 143.057,200.809 143.089,196.787 142.915 C 195.309 142.851,191.831 143.640,188.138 144.878 C 186.236 145.516,184.055 146.109,183.292 146.197 C 182.529 146.285,181.733 146.565,181.522 146.820 C 181.311 147.074,180.881 147.282,180.566 147.282 C 180.251 147.282,179.447 147.652,178.779 148.105 C 178.112 148.558,177.357 148.929,177.103 148.929 C 176.848 148.929,176.240 149.300,175.751 149.753 C 175.215 150.250,174.457 150.583,173.840 150.592 C 173.277 150.601,172.355 150.861,171.790 151.169 C 171.224 151.477,170.128 152.077,169.354 152.502 C 168.579 152.927,167.587 153.700,167.149 154.221 C 166.253 155.285,164.351 155.819,163.619 155.213 C 163.358 154.996,162.790 154.925,162.301 155.047 C 161.113 155.345,160.351 154.698,160.885 153.843 C 161.101 153.496,161.440 153.213,161.636 153.213 C 161.833 153.213,162.332 152.853,162.745 152.413 C 163.173 151.957,164.223 151.441,165.191 151.210 C 167.175 150.737,170.780 148.645,171.762 147.396 C 172.418 146.563,176.098 144.646,177.042 144.646 C 177.290 144.646,177.761 144.349,178.089 143.987 C 178.417 143.624,178.891 143.328,179.142 143.328 C 179.393 143.328,180.222 143.006,180.985 142.613 C 182.482 141.841,184.572 141.238,188.468 140.454 C 189.827 140.180,191.426 139.751,192.021 139.500 C 192.616 139.250,193.802 139.030,194.657 139.012 C 195.512 138.994,196.582 138.870,197.035 138.736 C 198.252 138.377,211.354 138.621,213.839 139.048 M220.360 146.049 C 221.152 146.303,221.548 146.294,221.826 146.015 C 222.115 145.727,221.851 145.642,220.741 145.668 L 219.275 145.702 220.360 146.049 M222.570 146.623 C 222.682 146.804,222.996 146.952,223.268 146.952 C 223.540 146.952,223.670 146.804,223.558 146.623 C 223.446 146.442,223.132 146.293,222.861 146.293 C 222.589 146.293,222.458 146.442,222.570 146.623 M208.138 147.395 C 208.283 147.638,208.810 148.100,209.308 148.421 C 210.497 149.187,210.452 149.523,209.143 149.650 C 208.408 149.721,207.970 149.986,207.747 150.495 C 207.384 151.323,206.811 151.308,206.648 150.467 C 206.576 150.097,206.764 149.918,207.225 149.918 C 208.099 149.918,208.105 149.126,207.237 148.258 C 206.540 147.561,206.624 146.952,207.417 146.952 C 207.669 146.952,207.994 147.151,208.138 147.395 M206.038 148.073 C 206.437 149.114,205.483 149.702,204.599 148.961 C 203.910 148.385,203.863 148.234,204.283 147.952 C 204.992 147.478,205.831 147.536,206.038 148.073 M186.366 150.012 C 186.495 150.141,185.612 150.247,184.404 150.247 C 183.196 150.247,182.208 150.130,182.208 149.986 C 182.208 149.664,186.041 149.687,186.366 150.012 M189.965 153.849 C 189.721 154.243,190.341 154.634,190.780 154.362 C 191.148 154.135,190.906 153.542,190.445 153.542 C 190.285 153.542,190.069 153.680,189.965 153.849 M163.262 156.013 C 163.262 156.345,163.077 156.679,162.850 156.755 C 162.589 156.841,162.438 156.570,162.438 156.013 C 162.438 155.457,162.589 155.185,162.850 155.272 C 163.077 155.347,163.262 155.681,163.262 156.013 M199.068 157.857 C 198.576 158.645,198.747 158.986,199.492 158.700 C 199.999 158.505,200.224 157.166,199.750 157.166 C 199.612 157.166,199.305 157.477,199.068 157.857 M201.780 159.708 C 200.164 161.828,201.030 165.456,203.205 165.670 C 205.476 165.893,207.801 164.670,206.561 163.903 C 206.364 163.781,206.276 163.402,206.365 163.060 C 206.632 162.041,206.081 162.059,204.987 163.104 C 203.564 164.464,201.977 163.980,201.977 162.185 C 201.977 161.498,203.533 160.118,204.074 160.325 C 204.341 160.427,204.932 160.268,205.387 159.969 C 206.773 159.061,208.402 159.416,208.402 160.626 C 208.402 161.170,208.587 161.810,208.814 162.050 C 209.444 162.716,209.005 163.744,207.908 164.171 C 207.513 164.325,207.529 164.368,207.990 164.389 C 208.982 164.434,209.908 163.169,210.094 161.515 C 210.373 159.042,209.981 158.765,206.013 158.639 L 202.677 158.533 201.780 159.708 M211.087 158.710 C 210.724 159.073,210.850 159.473,211.327 159.473 C 211.577 159.473,211.966 159.695,212.191 159.967 C 212.622 160.487,213.839 160.653,213.839 160.192 C 213.839 159.803,211.340 158.457,211.087 158.710 M167.051 159.822 C 167.051 160.195,166.903 160.409,166.722 160.297 C 166.540 160.185,166.392 159.879,166.392 159.618 C 166.392 159.357,166.540 159.143,166.722 159.143 C 166.903 159.143,167.051 159.449,167.051 159.822 M196.705 159.830 C 196.705 160.633,197.475 160.519,197.635 159.693 C 197.698 159.368,197.530 159.143,197.224 159.143 C 196.918 159.143,196.705 159.425,196.705 159.830 M167.222 161.459 C 167.518 161.939,166.028 163.106,165.239 163.011 C 163.509 162.804,164.565 161.539,166.785 161.159 C 166.910 161.138,167.106 161.273,167.222 161.459 M164.086 161.944 C 164.086 162.216,163.863 162.438,163.591 162.438 C 163.320 162.438,163.097 162.216,163.097 161.944 C 163.097 161.672,163.320 161.450,163.591 161.450 C 163.863 161.450,164.086 161.672,164.086 161.944 M234.070 164.498 C 233.238 166.174,231.979 168.287,231.272 169.193 C 230.564 170.099,229.302 172.175,228.466 173.806 C 227.630 175.437,226.592 177.150,226.159 177.613 C 225.725 178.076,225.371 178.598,225.371 178.773 C 225.371 179.257,220.432 183.635,219.377 184.086 C 218.868 184.304,218.451 184.728,218.451 185.028 C 218.451 185.446,218.258 185.525,217.628 185.367 C 217.064 185.226,216.804 185.296,216.804 185.590 C 216.804 185.892,216.264 186.020,214.998 186.020 C 213.050 186.020,210.873 187.516,210.873 188.854 C 210.873 189.177,210.511 189.678,210.068 189.968 C 209.552 190.307,209.227 190.870,209.162 191.541 C 209.086 192.324,208.881 192.612,208.344 192.689 C 207.949 192.745,207.251 193.283,206.792 193.885 C 206.332 194.487,205.580 195.074,205.120 195.190 C 204.660 195.305,204.283 195.545,204.283 195.723 C 204.283 196.172,202.727 196.130,202.445 195.674 C 201.711 194.487,194.872 196.178,192.485 198.136 C 188.993 201.001,187.170 206.659,188.973 209.042 C 189.239 209.393,189.456 209.889,189.456 210.142 C 189.456 210.648,191.100 212.521,191.544 212.521 C 191.697 212.521,192.068 212.795,192.369 213.129 C 195.412 216.516,202.820 216.069,206.681 212.266 C 209.750 209.243,210.396 203.078,208.028 199.404 C 207.288 198.256,207.575 197.254,208.753 196.870 C 209.308 196.689,210.246 196.133,210.837 195.634 C 211.429 195.136,212.039 194.728,212.194 194.728 C 212.349 194.728,212.565 194.450,212.673 194.109 C 212.781 193.768,213.604 193.185,214.507 192.809 C 215.408 192.435,216.145 191.934,216.145 191.696 C 216.145 191.227,218.288 189.127,218.766 189.127 C 218.927 189.127,219.231 188.607,219.441 187.971 C 219.650 187.335,220.144 186.645,220.537 186.437 C 220.930 186.229,221.860 185.563,222.604 184.957 C 223.347 184.351,224.187 183.855,224.469 183.855 C 224.752 183.855,225.372 183.373,225.847 182.784 C 226.323 182.195,226.983 181.390,227.314 180.996 C 227.644 180.601,228.008 179.697,228.121 178.987 C 228.370 177.432,229.891 175.427,231.591 174.413 C 232.833 173.672,234.511 171.453,235.922 168.682 C 236.332 167.875,237.166 166.607,237.774 165.864 C 239.094 164.250,239.178 163.146,238.054 162.168 C 236.404 160.734,235.747 161.119,234.070 164.498 M177.265 163.427 C 177.265 163.608,177.052 163.756,176.791 163.756 C 176.485 163.756,176.271 164.196,176.187 164.992 L 176.058 166.227 176.003 164.854 C 175.952 163.598,176.178 163.212,177.018 163.123 C 177.154 163.109,177.265 163.245,177.265 163.427 M153.542 174.794 C 153.542 175.069,153.249 175.288,152.883 175.288 C 152.227 175.288,152.026 174.937,152.444 174.519 C 152.845 174.118,153.542 174.292,153.542 174.794 M164.262 176.539 C 164.092 177.543,164.180 177.908,164.708 178.386 C 165.921 179.483,165.876 182.208,164.645 182.208 C 164.422 182.208,163.732 183.060,163.112 184.102 C 162.492 185.144,161.803 186.145,161.580 186.326 C 161.358 186.507,160.937 187.378,160.644 188.261 C 160.051 190.050,158.707 192.486,157.979 193.090 C 157.221 193.719,157.001 192.611,157.624 191.298 C 157.916 190.684,158.155 189.980,158.155 189.734 C 158.155 189.489,158.677 188.852,159.316 188.320 C 160.638 187.218,161.505 185.701,161.228 184.977 C 160.911 184.153,160.397 184.623,159.250 186.788 C 158.646 187.927,157.848 189.105,157.476 189.406 C 157.104 189.707,156.401 190.673,155.912 191.552 C 154.399 194.277,152.312 194.987,153.336 192.429 C 153.631 191.693,153.871 190.718,153.871 190.263 C 153.871 189.364,154.429 188.056,155.691 185.997 C 156.135 185.272,156.794 184.042,157.156 183.263 C 157.862 181.748,158.976 180.184,160.603 178.427 C 161.159 177.826,162.032 176.873,162.541 176.311 C 163.864 174.852,164.532 174.941,164.262 176.539 M151.286 179.386 C 151.349 179.689,151.549 179.928,151.730 179.919 C 152.219 179.893,152.129 179.156,151.616 178.985 C 151.339 178.892,151.215 179.043,151.286 179.386 M145.305 180.395 C 145.305 180.667,145.091 180.890,144.830 180.890 C 144.280 180.890,143.908 180.419,144.215 180.112 C 144.609 179.718,145.305 179.899,145.305 180.395 M144.646 182.862 C 144.646 183.336,143.627 184.204,143.305 184.006 C 143.140 183.904,143.243 183.459,143.532 183.017 C 144.018 182.275,144.646 182.188,144.646 182.862 M147.941 184.138 C 147.941 184.815,147.326 185.502,146.722 185.502 C 146.093 185.502,146.199 184.161,146.866 183.673 C 147.546 183.176,147.941 183.347,147.941 184.138 M148.128 188.207 C 147.844 188.612,147.611 189.215,147.611 189.546 C 147.611 191.472,146.058 192.675,145.329 191.313 C 144.803 190.330,145.399 189.050,147.200 187.295 C 148.567 185.963,149.238 186.622,148.128 188.207 M151.496 189.503 C 151.620 190.148,150.026 192.586,149.481 192.586 C 148.945 192.586,149.154 190.489,149.785 189.526 C 150.340 188.679,151.334 188.666,151.496 189.503 M214.168 189.805 C 214.168 190.393,214.031 190.728,213.839 190.610 C 213.657 190.498,213.509 190.044,213.509 189.602 C 213.509 189.159,213.657 188.797,213.839 188.797 C 214.020 188.797,214.168 189.251,214.168 189.805 M137.894 190.104 C 137.670 191.122,137.868 191.763,138.405 191.763 C 138.805 191.763,138.811 189.555,138.412 189.308 C 138.246 189.205,138.012 189.564,137.894 190.104 M191.114 191.327 C 191.132 191.791,192.092 192.904,192.092 192.461 C 192.092 192.232,191.870 191.823,191.598 191.551 C 191.326 191.279,191.109 191.179,191.114 191.327 M144.602 195.139 C 144.326 195.655,144.160 195.743,144.056 195.431 C 143.974 195.184,144.110 194.853,144.359 194.695 C 145.017 194.278,145.040 194.321,144.602 195.139 M207.908 195.364 C 207.908 195.840,206.926 196.705,206.386 196.705 C 205.986 196.705,206.005 196.561,206.492 195.892 C 207.079 195.085,207.908 194.776,207.908 195.364 M167.030 195.906 C 166.638 196.379,166.680 196.533,167.345 197.072 C 168.895 198.327,169.825 197.606,168.408 196.248 C 167.560 195.436,167.445 195.407,167.030 195.906 M131.916 199.743 C 131.633 200.200,131.154 199.678,131.362 199.138 C 131.515 198.739,131.615 198.720,131.820 199.051 C 131.964 199.284,132.007 199.595,131.916 199.743 M204.387 199.044 C 206.650 200.075,208.065 205.785,206.623 208.072 C 204.987 210.669,202.154 212.521,199.817 212.521 C 199.219 212.521,198.490 212.760,198.197 213.053 C 197.566 213.684,194.320 213.139,193.210 212.216 C 189.946 209.500,189.290 206.960,191.135 204.175 C 192.063 202.774,193.410 202.058,193.410 202.965 C 193.410 203.147,193.280 203.295,193.121 203.295 C 191.992 203.295,191.895 208.055,192.985 209.909 C 193.737 211.187,196.174 212.570,196.749 212.045 C 196.996 211.818,198.015 211.381,199.012 211.073 C 204.467 209.391,207.489 204.517,205.009 201.401 C 204.169 200.346,203.207 198.682,203.436 198.682 C 203.522 198.682,203.950 198.845,204.387 199.044 M199.163 199.648 C 199.267 199.817,198.880 200.398,198.302 200.938 C 197.277 201.895,197.265 201.941,197.802 202.761 C 198.477 203.791,198.496 204.593,197.878 206.002 C 197.617 206.597,197.208 207.751,196.969 208.567 C 196.519 210.100,195.803 210.393,194.821 209.446 C 194.405 209.044,194.906 207.021,195.762 205.651 C 196.311 204.772,195.700 203.159,194.765 203.022 C 193.525 202.840,194.027 201.641,195.716 200.750 C 196.531 200.320,197.339 199.827,197.512 199.655 C 197.913 199.253,198.916 199.249,199.163 199.648 M139.703 203.934 C 139.703 204.980,139.180 205.539,138.674 205.033 C 138.297 204.656,138.863 202.965,139.366 202.965 C 139.552 202.965,139.703 203.401,139.703 203.934 M131.960 206.919 C 131.960 207.161,131.775 207.420,131.549 207.496 C 131.304 207.578,131.137 207.344,131.137 206.919 C 131.137 206.495,131.304 206.261,131.549 206.343 C 131.775 206.418,131.960 206.678,131.960 206.919 M322.780 210.049 C 322.627 210.449,322.912 210.544,324.263 210.544 C 325.614 210.544,325.899 210.639,325.746 211.038 C 325.597 211.426,325.837 211.532,326.864 211.532 C 328.176 211.532,329.041 213.784,327.759 213.865 C 327.430 213.885,327.430 213.924,327.759 214.057 C 327.986 214.148,328.171 214.391,328.171 214.596 C 328.171 214.808,327.945 214.742,327.644 214.440 C 327.184 213.981,326.318 213.935,320.935 214.088 C 313.293 214.304,312.941 214.237,313.078 212.592 L 313.180 211.367 314.982 211.265 C 315.973 211.209,316.967 211.011,317.191 210.825 C 317.627 210.464,318.403 210.748,318.141 211.173 C 318.054 211.312,318.503 211.446,319.138 211.470 C 319.880 211.498,320.358 211.340,320.478 211.028 C 320.580 210.762,321.014 210.544,321.442 210.544 C 321.998 210.544,322.166 210.403,322.030 210.049 C 321.907 209.729,322.039 209.555,322.405 209.555 C 322.772 209.555,322.903 209.729,322.780 210.049 M153.762 212.411 C 153.386 212.787,153.520 213.740,154.007 214.144 C 154.626 214.658,154.990 214.072,154.720 212.996 C 154.519 212.196,154.182 211.990,153.762 212.411 M152.939 217.026 C 153.011 217.405,153.398 217.667,153.986 217.735 C 154.738 217.821,154.896 217.726,154.804 217.240 C 154.732 216.861,154.345 216.600,153.757 216.532 C 153.005 216.446,152.847 216.541,152.939 217.026 M328.176 255.601 C 328.178 271.866,328.272 285.515,328.384 285.934 C 328.544 286.532,328.432 286.735,327.861 286.885 C 327.286 287.035,327.175 287.240,327.331 287.861 C 327.466 288.397,327.369 288.708,327.026 288.840 C 326.750 288.946,326.524 289.313,326.524 289.656 C 326.524 290.396,324.104 292.916,323.394 292.916 C 323.122 292.916,322.900 293.138,322.900 293.410 C 322.900 293.721,322.586 293.904,322.056 293.904 C 321.578 293.904,321.301 294.047,321.417 294.234 C 321.542 294.437,320.981 294.563,319.954 294.563 C 318.692 294.563,318.287 294.683,318.287 295.058 C 318.287 295.476,317.503 295.552,313.207 295.552 C 309.436 295.552,308.092 295.658,307.990 295.964 C 307.763 296.647,282.616 296.737,281.936 296.057 C 281.613 295.734,280.820 295.552,279.734 295.552 C 278.185 295.552,277.927 295.437,276.771 294.234 C 276.075 293.509,275.279 292.916,275.004 292.916 C 274.032 292.916,274.058 292.167,275.061 291.228 C 275.620 290.707,276.233 290.280,276.424 290.280 C 276.615 290.280,276.771 290.132,276.771 289.951 C 276.771 289.769,277.142 289.621,277.595 289.621 C 278.048 289.621,278.418 289.463,278.418 289.270 C 278.418 288.627,281.984 285.338,282.680 285.338 C 283.066 285.338,283.361 285.123,283.361 284.843 C 283.361 284.572,283.558 284.349,283.799 284.349 C 284.041 284.349,284.436 283.979,284.679 283.526 C 284.921 283.072,285.317 282.702,285.558 282.702 C 285.799 282.702,285.997 282.479,285.997 282.208 C 285.997 281.936,286.156 281.713,286.350 281.713 C 286.544 281.713,286.915 281.502,287.173 281.243 C 287.432 280.984,287.644 280.613,287.644 280.419 C 287.644 280.225,287.867 280.066,288.138 280.066 C 288.410 280.066,288.633 279.918,288.633 279.736 C 288.633 279.555,288.858 279.407,289.133 279.407 C 289.502 279.407,289.579 279.191,289.428 278.586 C 289.281 278.002,289.374 277.707,289.751 277.563 C 290.042 277.451,290.280 277.079,290.280 276.736 C 290.280 276.393,290.428 276.112,290.610 276.112 C 290.791 276.112,290.939 275.890,290.939 275.618 C 290.939 275.346,291.161 275.124,291.433 275.124 C 291.763 275.124,291.928 274.794,291.928 274.135 C 291.928 273.476,292.092 273.147,292.422 273.147 C 292.696 273.147,292.916 272.854,292.916 272.488 C 292.916 272.125,293.064 271.829,293.245 271.829 C 293.427 271.829,293.575 271.590,293.575 271.299 C 293.575 270.964,293.756 270.839,294.069 270.959 C 294.440 271.102,294.563 270.905,294.563 270.171 C 294.563 269.633,294.712 269.193,294.893 269.193 C 295.074 269.193,295.222 268.970,295.222 268.699 C 295.222 268.427,295.445 268.204,295.717 268.204 C 295.991 268.204,296.211 267.911,296.211 267.545 C 296.211 266.814,296.715 266.656,296.994 267.298 C 297.093 267.525,297.089 267.302,296.986 266.804 C 296.843 266.113,296.924 265.898,297.328 265.898 C 297.674 265.898,297.858 265.611,297.858 265.074 C 297.858 264.621,298.007 264.250,298.188 264.250 C 298.369 264.250,298.517 264.028,298.517 263.756 C 298.517 263.484,298.740 263.262,299.012 263.262 C 299.319 263.262,299.506 262.951,299.506 262.438 C 299.506 261.926,299.692 261.614,300.000 261.614 C 300.308 261.614,300.494 261.303,300.494 260.791 C 300.494 260.338,300.643 259.967,300.824 259.967 C 301.005 259.967,301.153 259.612,301.153 259.179 C 301.153 258.745,301.376 258.305,301.647 258.200 C 301.919 258.096,302.142 257.635,302.142 257.177 C 302.142 256.718,302.290 256.343,302.471 256.343 C 302.652 256.343,302.801 255.972,302.801 255.519 C 302.801 255.066,302.933 254.695,303.094 254.695 C 303.256 254.695,303.481 254.325,303.595 253.871 C 303.709 253.418,303.947 253.048,304.125 253.048 C 304.303 253.048,304.448 252.529,304.448 251.895 C 304.448 251.089,304.597 250.741,304.942 250.741 C 305.326 250.741,305.437 250.306,305.437 248.800 C 305.437 247.430,305.574 246.805,305.902 246.679 C 306.241 246.549,306.319 246.138,306.189 245.167 C 306.050 244.128,306.129 243.789,306.547 243.628 C 306.897 243.494,307.084 243.033,307.084 242.304 C 307.084 241.689,307.232 241.186,307.414 241.186 C 307.595 241.186,307.743 240.667,307.743 240.033 C 307.743 239.228,307.892 238.880,308.237 238.880 C 308.617 238.880,308.731 238.459,308.731 237.068 C 308.731 235.620,308.838 235.255,309.263 235.255 C 309.707 235.255,309.758 235.009,309.572 233.770 C 309.395 232.587,309.454 232.245,309.864 232.088 C 310.195 231.960,310.379 231.478,310.379 230.736 L 310.379 229.583 314.168 229.703 C 316.866 229.789,317.957 229.715,317.957 229.446 C 317.957 228.997,320.111 228.533,320.650 228.865 C 320.871 229.002,320.934 228.951,320.804 228.740 C 320.472 228.203,321.718 227.937,323.394 228.189 C 324.683 228.382,324.857 228.340,324.681 227.880 C 324.513 227.443,324.719 227.348,325.830 227.348 C 326.963 227.348,327.183 227.241,327.183 226.689 C 327.183 226.323,327.403 226.030,327.677 226.030 C 328.113 226.030,328.172 229.537,328.176 255.601 M154.421 231.137 C 155.055 238.720,154.685 240.354,153.174 236.656 C 152.748 235.614,152.439 234.634,152.488 234.479 C 152.537 234.323,152.275 233.685,151.906 233.060 C 151.040 231.591,151.058 231.420,152.142 230.824 C 153.340 230.165,154.351 230.304,154.421 231.137 M173.765 241.181 C 173.298 241.370,172.988 241.883,172.832 242.725 C 172.704 243.419,172.167 245.022,171.637 246.287 C 171.108 247.552,170.675 248.812,170.675 249.088 C 170.675 249.363,170.088 250.542,169.371 251.709 C 168.653 252.875,167.751 254.654,167.365 255.663 C 166.386 258.222,166.216 258.587,165.086 260.560 C 163.854 262.710,163.841 263.240,164.992 264.313 C 168.098 267.210,168.684 266.465,172.295 255.025 C 173.411 251.491,174.748 247.710,175.267 246.623 C 177.515 241.914,176.956 239.892,173.765 241.181 " stroke="none" fill="#040404" fill-rule="evenodd"></path></g></svg>